<svg width="182" height="183" viewBox="0 0 182 183" fill="none" xmlns="http://www.w3.org/2000/svg">
<path d="M133.151 205.31H196V109.725H133.151V205.31Z" fill="#E2E2E0"/>
<path d="M133.154 205.308H185.384V109.721H133.154V205.308Z" fill="#EDEDEB"/>
<path d="M3.48563 238.058H77.4871V57.9887H3.48563V238.058Z" fill="#406FBF"/>
<path d="M59.7811 238.058H3.48563V58.4142H59.7811V105.977H3.48563V107.622H59.7811V141.551H3.48563V143.196H59.7811V177.438H3.48563V179.082H59.7811V238.058ZM33.0341 212.576H51.4176V203.015H31.7225V212.576H33.0341ZM10.2523 212.576H28.6357V203.015H8.94069V212.576H10.2523ZM33.0341 195.123H51.4176V185.561H31.7225V195.123H33.0341ZM10.2523 195.123H28.6357V185.561H8.94069V195.123H10.2523ZM33.0341 171.494H51.4176V161.932H31.7225V171.494H33.0341ZM10.2523 171.494H28.6357V161.932H8.94069V171.494H10.2523ZM33.0341 158.276H51.4176V148.715H31.7225V158.276H33.0341ZM10.2523 158.276H28.6357V148.715H8.94069V158.276H10.2523ZM33.0341 136.564H51.4176V127.003H31.7225V136.564H33.0341ZM10.2523 136.564H28.6357V127.003H8.94069V136.564H10.2523ZM33.0341 123.348H51.4176V113.787H31.7225V123.348H33.0341ZM10.2523 123.348H28.6357V113.787H8.94069V123.348H10.2523ZM33.0341 100.347H51.4176V90.7858H31.7225V100.347H33.0341ZM10.2523 100.347H28.6357V90.7858H8.94069V100.347H10.2523ZM33.0341 82.3488H51.4176V72.7881H31.7225V82.3488H33.0341ZM10.2523 82.3488H28.6357V72.7881H8.94069V82.3488H10.2523Z" fill="#7DA6DD"/>
<path d="M8.94049 82.3488H28.6354V72.7883H8.94049V82.3488Z" fill="#406FBF"/>
<path d="M10.2522 82.3488H28.6354V72.7883H10.2522V82.3488Z" fill="#5D87CD"/>
<path d="M31.7224 82.3488H51.4174V72.7883H31.7224V82.3488Z" fill="#406FBF"/>
<path d="M33.0341 82.3488H51.4173V72.7883H33.0341V82.3488Z" fill="#5D87CD"/>
<path d="M8.94049 100.347H28.6354V90.7856H8.94049V100.347Z" fill="#406FBF"/>
<path d="M10.2522 100.347H28.6354V90.7856H10.2522V100.347Z" fill="#5D87CD"/>
<path d="M31.7224 100.347H51.4174V90.7856H31.7224V100.347Z" fill="#406FBF"/>
<path d="M33.0341 100.347H51.4173V90.7856H33.0341V100.347Z" fill="#5D87CD"/>
<path d="M8.94049 123.348H28.6354V113.787H8.94049V123.348Z" fill="#406FBF"/>
<path d="M10.2522 123.348H28.6354V113.787H10.2522V123.348Z" fill="#5D87CD"/>
<path d="M31.7224 123.348H51.4174V113.787H31.7224V123.348Z" fill="#406FBF"/>
<path d="M33.0341 123.348H51.4173V113.787H33.0341V123.348Z" fill="#5D87CD"/>
<path d="M0 58.4142H77.4867V52.6631H0V58.4142Z" fill="#406FBF"/>
<path d="M59.781 58.4142H77.4869V52.6631H59.781V58.4142Z" fill="#3563B7"/>
<path d="M77.487 238.058H59.781V179.082H77.487V205.234V205.504V238.058ZM77.487 177.438H59.781V143.196H77.487V156.777V157.047V177.438ZM77.487 141.551H59.781V107.622H77.487V141.551ZM77.487 105.977H59.781V58.4142H77.487V105.977" fill="#B8D2EF"/>
<path d="M109.657 238.059H196.554V12.2174H109.657V238.059Z" fill="#406FBF"/>
<path d="M77.487 238.059H164.39V12.2153H77.487V238.059Z" fill="#406FBF"/>
<path d="M196.554 238.059H164.39V15.4544H196.554V27.5443H172.341V39.053H196.554V46.4799H172.341V57.9885H196.554V65.4154H172.341V76.924H196.554V87.1578H172.341V98.6665H196.554V107.283H172.341V118.792H196.554V127.408H172.341V138.917H196.554V149.587H172.341V161.096H196.554V171.766H172.341V183.273H196.554V193.945H172.341V205.453H196.554V205.504V216.124H172.341V227.632H196.554V238.059Z" fill="#B8D2EF"/>
<path d="M172.34 39.053H196.554V27.544H172.34V39.053Z" fill="#406FBF"/>
<path d="M172.34 57.9885H196.554V46.4798H172.34V57.9885Z" fill="#406FBF"/>
<path d="M172.34 76.924H196.554V65.4153H172.34V76.924Z" fill="#406FBF"/>
<path d="M172.34 98.6665H196.554V87.1578H172.34V98.6665Z" fill="#406FBF"/>
<path d="M172.34 118.792H196.554V107.283H172.34V118.792Z" fill="#406FBF"/>
<path d="M172.34 39.053H196.554V27.544H172.34V39.053Z" fill="#6D97D6"/>
<path d="M172.34 57.9885H196.554V46.4798H172.34V57.9885Z" fill="#6D97D6"/>
<path d="M172.34 76.924H196.554V65.4153H172.34V76.924Z" fill="#6D97D6"/>
<path d="M172.34 98.6665H196.554V87.1578H172.34V98.6665Z" fill="#6D97D6"/>
<path d="M172.34 118.792H196.554V107.283H172.34V118.792Z" fill="#6D97D6"/>
<path d="M164.39 238.059H143.808C144.279 237.834 144.748 237.605 145.213 237.374C148.093 235.95 150.988 234.449 153.339 232.262C158.106 227.829 160.071 221.067 160.33 214.561C160.354 213.952 160.365 213.343 160.365 212.733C160.364 206.846 159.305 200.99 158.757 195.116C158.026 187.314 158.195 179.434 157.105 171.674C156.601 168.094 155.797 164.497 154.559 161.092H156.806V149.589H147.568C142.586 144.527 135.532 141.551 128.426 141.551C128.419 141.551 128.411 141.551 128.404 141.551C121.306 141.556 114.26 144.533 109.283 149.589H85.0705V161.092H87.8537H102.169C100.833 164.505 99.841 168.116 98.9237 171.769H85.0705V183.271H87.8537H95.9536C95.8877 183.491 95.8218 183.71 95.7548 183.929C94.7219 187.29 93.4546 190.597 92.3882 193.947H85.0705V205.451H87.8537H90.1723C90.1647 205.72 90.1615 205.991 90.1615 206.259C90.1593 209.599 90.6833 212.939 91.687 216.126H85.0705V227.63H87.8537H98.0907C102.704 232.926 109.105 236.615 115.972 238.059H77.487V179.082V177.438V143.196V141.551V107.622V105.977V15.4544H164.39V238.059V238.059ZM87.8537 138.913H156.806V127.41H85.0705V138.913H87.8537V138.913ZM87.8537 118.789H156.806V107.285H85.0705V118.789H87.8537ZM87.8537 98.6643H156.806V87.16H85.0705V98.6643H87.8537ZM87.8537 78.5393H156.806V67.0349H85.0705V78.5393H87.8537ZM87.8537 58.4142H156.806V46.9109H85.0705V58.4142H87.8537V58.4142ZM87.8537 39.053H156.806V27.5497H85.0705V39.053H87.8537" fill="#7DA6DD"/>
<path d="M85.0705 39.053H156.806V27.5494H85.0705V39.053Z" fill="#406FBF"/>
<path d="M87.8536 39.053H156.807V27.5494H87.8536V39.053Z" fill="#5D87CD"/>
<path d="M85.0705 58.4142H156.806V46.9106H85.0705V58.4142Z" fill="#406FBF"/>
<path d="M87.8536 58.4142H156.807V46.9106H87.8536V58.4142Z" fill="#5D87CD"/>
<path d="M85.0705 78.5393H156.806V67.035H85.0705V78.5393Z" fill="#406FBF"/>
<path d="M87.8536 78.5393H156.807V67.035H87.8536V78.5393Z" fill="#5D87CD"/>
<path d="M85.0705 98.6644H156.806V87.16H85.0705V98.6644Z" fill="#406FBF"/>
<path d="M87.8536 98.6644H156.807V87.16H87.8536V98.6644Z" fill="#5D87CD"/>
<path d="M85.0705 118.789H156.806V107.285H85.0705V118.789Z" fill="#406FBF"/>
<path d="M87.8536 118.789H156.807V107.285H87.8536V118.789Z" fill="#5D87CD"/>
<path d="M164.39 9.94312H194.699V5.51127H164.39V9.94312Z" fill="#406FBF"/>
<path d="M77.487 9.94312H194.699V4.43211H77.487V9.94312Z" fill="#EDEDEB"/>
<path d="M75.0291 15.4544H198.808V9.94298H75.0291V15.4544Z" fill="#406FBF"/>
<path d="M75.0291 5.51123H198.808V0.00022188H75.0291V5.51123Z" fill="#406FBF"/>
<path d="M164.39 15.4544H75.0291V9.94316H198.808H164.39V15.4544Z" fill="#3D6CBD"/>
<path d="M164.39 5.51123H75.0291V-1.51374e-05H198.808H164.39V5.51123Z" fill="#3D6CBD"/>
<path d="M3.48563 107.622H59.7812V105.977H3.48563V107.622Z" fill="#92B8E5"/>
<path d="M59.781 107.622H77.4869V105.977H59.781V107.622Z" fill="#C6DAF2"/>
<path d="M198.808 15.4544H164.39V9.94316H198.808V15.4544Z" fill="#3260B6"/>
<path d="M198.808 5.51123H164.39V-1.51374e-05H198.808V5.51123Z" fill="#3260B6"/>
</svg>
