<svg width="162" height="228" viewBox="0 0 148 189" fill="none" xmlns="http://www.w3.org/2000/svg">
<path d="M77.7096 165.072C77.5754 164.334 75.0209 147.066 81.5582 127.823C87.8367 109.337 84.362 93.6601 84.3332 93.5068H88.9534C89.0733 94.173 89.3944 109.563 84.4722 130.646C80.0437 149.62 88.3112 165.072 86.5523 165.072H77.7096Z" fill="#7DA6DD"/>
<path d="M87.4146 114.096C87.4386 114.001 89.6432 101.348 95.5767 99.9098C92.9263 100.255 89.557 102.153 87.6686 105.69C86.2691 108.316 86.758 109.059 86.734 109.165L87.4146 114.096Z" fill="#A4C8FC"/>
<path d="M76.4538 111.139C76.4538 111.139 70.6497 101.707 63.566 98.5918C63.566 98.5918 64.9128 119.92 60.93 119.924C56.9472 119.929 61.1409 96.0516 61.1409 96.0516C61.1409 96.0516 42.9236 84.3429 35.2312 84.1416C35.2312 84.1416 44.7304 105.973 40.8674 105C37.0093 104.022 26.0674 81.7644 26.0674 81.7644C26.0674 81.7644 6.66145 75.6296 2.02205 87.0029C-2.62215 98.3809 1.8016 104.899 4.6533 105.997C7.50499 107.099 26.4124 109.184 25.6168 111.575C24.826 113.967 11.5932 116.315 4.75393 113.229C4.75393 113.229 10.2081 133.569 20.6228 133.862C31.0423 134.154 35.0203 128.173 41.4522 128.47C47.8889 128.767 52.3365 131.058 48.9337 132.381C45.5356 133.704 34.8909 131.216 29.2019 134.955C23.5129 138.698 19.0124 140.878 28.3296 144.022C37.6515 147.167 52.1449 145.23 59.2286 141.142C59.2525 141.132 64.8217 141.046 67.5296 166.985C68.5696 176.978 66.3314 191.567 66.3314 191.567L69.8877 191.255C73.6931 162.628 64.8601 138.055 64.8601 138.055C64.8601 138.055 83.3074 126.174 76.4538 111.139Z" fill="#7DA6DD"/>
<path d="M98.951 103.461C95.9028 104.305 92.3705 101.18 92.3705 101.18C92.3705 101.18 93.7844 96.6843 96.8326 95.836C99.8808 94.9924 103.408 98.1173 103.408 98.1173C103.408 98.1173 101.994 102.618 98.951 103.461Z" fill="#7DA6DD"/>
<path d="M134.01 34.733C123.37 41.7017 123.457 60.6666 123.457 60.6666C123.457 60.6666 140.802 68.3255 151.446 61.3568C162.091 54.3881 162 35.4231 162 35.4231C162 35.4231 144.655 27.7643 134.01 34.733Z" fill="#7DA6DD"/>
<path d="M134.01 34.7329C123.37 41.7016 123.457 60.6666 123.457 60.6666L162 35.4231C162 35.4231 144.655 27.7642 134.01 34.7329Z" fill="#D2E3FC"/>
<path d="M133.373 16.8894C130.181 21.2173 133.004 28.718 133.004 28.718C133.004 28.718 141.003 29.2021 144.195 24.8742C147.387 20.5511 144.564 13.0504 144.564 13.0504C144.564 13.0504 136.565 12.5616 133.373 16.8894Z" fill="#7DA6DD"/>
<path d="M40.9539 52.308C37.7427 26.8297 55.7971 3.57998 81.2755 0.36882C106.749 -2.83754 130.004 15.2168 133.21 40.6904C136.416 66.1687 118.367 89.4233 92.8884 92.6296C67.4148 95.836 44.1603 77.7864 40.9539 52.308Z" fill="#E2810E"/>
<path d="M36.9277 52.8161C33.7214 27.3377 51.771 4.0832 77.2494 0.876839C102.723 -2.32952 125.977 15.7201 129.184 41.1984C132.395 66.6768 114.341 89.9265 88.867 93.1376C63.3886 96.344 40.1341 78.2896 36.9277 52.8161Z" fill="#FFB93E"/>
<path d="M78.1505 8.03252C56.3577 10.774 40.8627 30.7359 43.6042 52.5286C46.3505 74.3213 66.3075 89.8163 88.1002 87.0748C109.893 84.3286 125.393 64.3667 122.647 42.574C119.905 20.7861 99.9432 5.28625 78.1505 8.03252ZM88.4166 89.5815C77.1919 90.9953 66.0871 87.9519 57.1485 81.012C48.21 74.0721 42.5114 64.0696 41.0975 52.8449C39.6837 41.6154 42.7271 30.5106 49.6671 21.5769C56.6022 12.6384 66.6095 6.93497 77.8341 5.52111C89.0588 4.11203 100.164 7.15064 109.102 14.0906C118.041 21.0305 123.739 31.033 125.153 42.2577C126.567 53.4871 123.524 64.592 116.584 73.5305C109.649 82.4642 99.6413 88.1676 88.4166 89.5815Z" fill="#FFA412"/>
<path d="M90.4488 59.0228C90.4392 58.1026 90.305 57.2926 90.0414 56.5928C89.7778 55.8931 89.3465 55.2605 88.7522 54.6949C88.1579 54.1294 87.3958 53.6117 86.4612 53.1373C85.5266 52.6628 84.386 52.1979 83.0392 51.7474C80.7195 50.9518 78.6155 50.1178 76.7271 49.2455C74.8292 48.3732 73.2092 47.362 71.8577 46.2069C70.5061 45.0566 69.4517 43.7099 68.6992 42.157C67.942 40.609 67.5586 38.7589 67.5442 36.6118C67.5298 34.7522 67.8509 33.0507 68.4979 31.5123C69.1449 29.9738 70.0795 28.6318 71.2969 27.4863C72.5143 26.3361 73.9761 25.4015 75.6823 24.6778C77.3885 23.9541 79.3008 23.4844 81.4192 23.2735L81.3713 16.2425L87.0268 16.1994L87.0795 23.331C89.1068 23.5802 90.9521 24.1027 92.6104 24.903C94.2639 25.6987 95.6729 26.7435 96.8424 28.0231C98.0022 29.3124 98.9032 30.8317 99.5455 32.5906C100.178 34.3496 100.509 36.3242 100.523 38.5145L90.3002 38.5864C90.2811 35.96 89.6867 33.9949 88.5077 32.7009C87.3335 31.4068 85.7663 30.7646 83.806 30.779C82.7468 30.7886 81.8362 30.9419 81.0693 31.2439C80.3073 31.5458 79.6794 31.9532 79.1858 32.4708C78.6969 32.9884 78.3327 33.6019 78.1026 34.3017C77.8726 35.0062 77.7624 35.7635 77.7671 36.5734C77.7719 37.3834 77.8966 38.1167 78.1362 38.7733C78.3758 39.4251 78.788 40.0338 79.3679 40.585C79.9478 41.1409 80.7195 41.6586 81.678 42.1474C82.6366 42.6315 83.8252 43.1347 85.2439 43.6476C87.5348 44.4863 89.6244 45.349 91.5032 46.2309C93.3868 47.1175 95.0019 48.1432 96.3535 49.303C97.7098 50.4629 98.7595 51.8192 99.5167 53.3721C100.269 54.9202 100.653 56.7606 100.667 58.8838C100.681 60.8105 100.36 62.5455 99.6988 64.0791C99.0374 65.6176 98.0981 66.95 96.8807 68.0763C95.6585 69.2026 94.1872 70.1132 92.457 70.8034C90.7316 71.4935 88.8049 71.9441 86.6865 72.1597L86.7344 78.6971L81.1077 78.7354L81.0646 72.2316C79.1043 72.0495 77.2064 71.6325 75.3755 70.9903C73.5447 70.3481 71.9152 69.4135 70.4917 68.1818C69.0683 66.9548 67.9276 65.4019 67.0649 63.5232C66.2022 61.6492 65.7612 59.3966 65.7421 56.7654L75.965 56.6935C75.9746 58.2511 76.2047 59.5452 76.6456 60.5804C77.0913 61.6204 77.6809 62.4496 78.4142 63.0679C79.1523 63.6861 79.9862 64.1175 80.916 64.3619C81.8506 64.6063 82.7996 64.7262 83.7677 64.7214C84.8748 64.7118 85.8477 64.5632 86.6817 64.2708C87.5156 63.9833 88.2154 63.5807 88.7809 63.0727C89.3417 62.5646 89.7587 61.9655 90.0366 61.2754C90.3194 60.5852 90.4536 59.8327 90.4488 59.0228Z" fill="#FFA412"/>
<path d="M124.175 160.581L124.171 160.62L123.246 174.859L119.804 227.738H55.4518L51.6655 175.583L50.6207 161.209L50.5728 160.581H124.175Z" fill="#7DA6DD"/>
<path d="M124.171 160.62L123.245 174.859C118.395 173.172 104.923 169.113 87.3764 169.113C65.2099 169.113 51.6655 175.583 51.6655 175.583L50.6207 161.209L124.171 160.62Z" fill="#9BB8EA"/>
<path d="M126.409 168.111H48.2438L47.3475 159.019H127.401L126.409 168.111Z" fill="#B4C9F7"/>
</svg>
