<svg width="111" height="195" viewBox="0 0 111 195" fill="none" xmlns="http://www.w3.org/2000/svg">
<path d="M70.6178 111.386C70.4282 111.386 70.2582 111.251 70.2164 111.057C69.2741 106.602 69.7536 102.598 71.6437 99.1535C73.3805 95.9865 74.5012 92.778 75.6889 89.3836C76.3858 87.3928 77.1051 85.3357 77.9526 83.3056C78.0418 83.0948 78.2843 82.9956 78.4962 83.0845C78.7053 83.1712 78.8056 83.4151 78.7164 83.6239C77.8745 85.6315 77.1608 87.678 76.4694 89.6562C75.3237 92.935 74.1388 96.3233 72.3685 99.5524C70.576 102.817 70.1244 106.631 71.0248 110.885C71.0722 111.109 70.93 111.33 70.707 111.375C70.6764 111.381 70.6485 111.386 70.6178 111.386Z" fill="#1D1647"/>
<path d="M66.3781 70.1828L59.233 78.6856L56.9607 81.3876L36.7893 105.399L37.9743 71.9215C40.7319 71.752 42.8768 69.4697 42.8768 66.7099V55.4639L57.2048 55.9869C57.3946 57.2747 57.5925 58.5667 57.7851 59.8569C57.8176 60.076 57.8501 60.2951 57.8827 60.5142C57.8908 60.5451 57.8908 60.5763 57.8989 60.6093C58.0101 61.3493 58.0752 62.2238 58.1593 63.1395C58.1755 63.3277 58.1918 63.5159 58.2135 63.7063C58.5443 67.0138 59.2575 70.6232 63.1621 70.3792L66.3781 70.1828" fill="#F8BD8C"/>
<path d="M58.163 63.1388C57.1997 64.8215 55.6243 66.3597 53.4714 66.5954C49.3599 67.0439 45.3521 62.6159 43.3749 60.166C43.162 59.9055 43.0103 59.6657 42.8799 59.459V59.1737C43.2152 59.3661 43.6862 59.6162 44.3861 59.8683C45.9722 60.4471 48.3965 61.0445 51.6245 61.0405C53.961 61.0384 55.7493 60.499 57.0373 59.8683L57.7878 59.856C57.8197 60.075 57.8517 60.2943 57.8862 60.5133C57.8916 60.5445 57.8942 60.5753 57.8996 60.6083C58.0113 61.3487 58.0779 62.2231 58.163 63.1388" fill="#EAB186"/>
<path d="M64.5809 52.6186C64.5809 52.6186 81.6801 50.7661 74.7198 29.3645C67.7623 7.96334 46.3594 13.0089 46.3594 13.0089C46.3594 13.0089 30.5283 19.4618 28.6122 33.0247C26.6988 46.5902 38.1788 50.3114 38.1788 50.3114L64.5809 52.6186Z" fill="black"/>
<path d="M57.1202 14.1075C57.1202 14.1075 62.0282 5.86114 60.138 3.79216C58.2478 1.72319 55.8663 -0.680057 51.0872 0.178839C46.3055 1.038 45.2906 5.77605 45.747 7.35987C46.2061 8.94315 47.3848 12.0944 48.942 14.6512C50.4992 17.2078 57.1202 14.1075 57.1202 14.1075" fill="black"/>
<path d="M37.7691 43.0616C36.7883 53.3299 42.377 62.2628 50.2452 63.011C58.1161 63.7615 65.2888 56.0465 66.2668 45.7782C67.2476 35.5077 61.659 26.5764 53.7908 25.8266C45.9199 25.0764 38.7472 32.7936 37.7691 43.0616" fill="#F8BD8C"/>
<path d="M49.6642 23.2754C49.6642 23.2754 55.5794 35.1941 67.0614 41.6316C78.5463 48.0692 68.1926 25.2765 68.1926 25.2765L49.6642 23.2754Z" fill="black"/>
<path d="M33.4162 41.9199C33.4162 44.2641 35.4492 46.5279 37.1276 46.5279C38.806 46.5279 40.1655 44.6281 40.1655 42.2837C40.1655 39.9393 37.9362 38.0395 36.2578 38.0395C34.5819 38.0395 33.4162 39.5755 33.4162 41.9199" fill="#F8BD8C"/>
<path d="M69.155 43.1116C69.155 45.4561 67.1222 47.7197 65.4441 47.7197C63.7687 47.7197 62.4071 45.8179 62.4071 43.4735C62.4071 41.1312 64.6364 39.2294 66.3118 39.2294C67.9898 39.2294 69.155 40.7675 69.155 43.1116" fill="#F8BD8C"/>
<path d="M44.8339 41.4764C44.8339 42.384 45.397 43.1179 46.0872 43.1179C46.78 43.1179 47.3431 42.384 47.3431 41.4764C47.3431 40.569 46.78 39.8349 46.0872 39.8349C45.397 39.8349 44.8339 40.569 44.8339 41.4764Z" fill="black"/>
<path d="M57.5479 42.2849C57.5479 43.1926 58.1119 43.9266 58.8068 43.9266C59.4991 43.9266 60.0604 43.1926 60.0604 42.2849C60.0604 41.3775 59.4991 40.6417 58.8068 40.6417C58.1119 40.6417 57.5479 41.3775 57.5479 42.2849Z" fill="black"/>
<path d="M48.1846 37.6768C48.0804 37.6872 47.9762 37.6872 47.8719 37.6705C45.0652 37.2551 43.3451 38.1151 43.2722 38.1524C42.8031 38.3942 42.1933 38.2908 41.917 37.9207C41.6382 37.5509 41.7867 37.0568 42.2506 36.8087C42.3496 36.7568 44.6847 35.5476 48.3149 36.0808C48.8492 36.1595 49.1828 36.5812 49.0603 37.0195C48.9612 37.3708 48.599 37.6293 48.1846 37.6768Z" fill="black"/>
<path d="M62.481 38.5477C62.3813 38.5269 62.2815 38.4938 62.1845 38.4463C59.6372 37.1956 57.7395 37.4891 57.6614 37.5037C57.1384 37.5905 56.5885 37.3072 56.4376 36.8689C56.2866 36.4327 56.5777 36.0047 57.098 35.9117C57.2085 35.8931 59.7989 35.4529 63.0929 37.0673C63.5754 37.3072 63.7668 37.8075 63.5161 38.1878C63.3166 38.4938 62.8934 38.6283 62.481 38.5477" fill="black"/>
<path d="M52.4375 48.0331C52.2216 48.0331 52.011 47.9671 51.8399 47.8389C51.3082 47.4503 51.2819 47.1773 51.3424 46.549L51.6004 43.9089C51.6083 43.8096 51.6978 43.7393 51.7952 43.7478C51.8952 43.758 51.9663 43.8449 51.9558 43.9441L51.6978 46.584C51.6451 47.1463 51.6662 47.2682 52.0505 47.5514C52.1979 47.6591 52.3901 47.7004 52.5797 47.6612L53.2483 47.5206C53.3457 47.4998 53.4405 47.564 53.4615 47.6591C53.4826 47.7562 53.4194 47.8512 53.3247 47.872L52.6508 48.0126C52.5823 48.0271 52.5086 48.0331 52.4375 48.0331" fill="#080305"/>
<path d="M46.8152 52.6244C47.1307 54.6505 49.4029 56.0934 52.0304 55.8823C54.3132 55.6986 56.1293 54.3218 56.5589 52.6183L46.8152 52.6244Z" fill="white"/>
<path d="M36.9393 45.0679C37.1496 45.1877 37.2205 45.4543 37.1014 45.6653C36.9798 45.874 36.7114 45.9464 36.5037 45.8246C36.2935 45.7046 36.2226 45.4359 36.3416 45.2269C36.4632 45.0182 36.7317 44.946 36.9393 45.0679Z" fill="#080305"/>
<path d="M66.5105 45.9167C66.7222 46.0388 66.7927 46.3053 66.6733 46.5162C66.5512 46.7249 66.2852 46.7952 66.0762 46.6755C65.8672 46.5556 65.7939 46.2869 65.9133 46.0779C66.0355 45.8692 66.3015 45.7967 66.5105 45.9167Z" fill="#080305"/>
<path d="M76.7223 169.131L64.7662 174.302L57.87 167.045L72.9016 156.196L79.301 168.118L76.7223 169.131Z" fill="#F8BD8C"/>
<path d="M9.43146 195.169L12.1294 194.284C12.1294 194.284 12.4651 193.809 12.0936 193.197C11.7222 192.585 10.8364 192.604 10.4077 192.649C9.97437 192.693 9.08141 193.027 9.08141 193.027C9.08141 193.027 8.02416 191.818 6.9431 191.27C6.9431 191.27 7.22645 189.786 6.72402 188.818C6.72402 188.818 7.83128 187.688 7.71222 186.019C7.71222 186.019 7.82413 185.819 7.9932 185.509C8.13607 185.571 8.40754 185.697 8.58613 185.798C8.83139 185.939 8.85281 186.743 8.75518 187.225C8.65755 187.708 8.5504 189.24 8.70279 190.115C8.85757 190.991 9.52432 191.584 10.522 191.551C11.5198 191.518 11.5531 190.541 11.746 189.674C11.9388 188.806 11.8555 187.994 11.7865 186.431C11.7174 184.87 12.1222 184.089 12.4199 182.614C12.7199 181.139 12.6104 179.956 12.6104 179.956C12.4794 178.724 11.9912 177.237 11.8579 176.855C12.0031 175.966 11.9912 175.129 11.7079 174.507C11.2007 173.39 12.8485 165.235 12.8485 165.235L4.51427 166.177L5.29053 175.402C5.29053 175.402 2.68072 180.866 1.81634 183.32C0.954349 185.775 0.32572 187.069 0.44478 188.289C0.44478 188.289 1.71158 193.197 3.01171 194.282C4.34757 195.392 7.31217 197.342 8.17893 197.408C9.11236 197.48 11.5936 197.148 11.5936 197.148C11.5936 197.148 12.146 197.123 12.558 196.897C12.558 196.897 12.958 196.904 12.6485 196.068C12.3389 195.233 11.4841 195.442 9.43146 195.169Z" fill="#7DA6DD"/>
<path d="M23.4671 77.9171C23.4671 77.9171 16.2564 81.8572 15.2139 87.4202C14.169 92.9813 10.6909 100.835 8.77642 104.107C6.86197 107.38 4.42628 114.088 4.07798 116.379C3.72967 118.669 -1.14169 151.554 0.249068 159.407C1.6423 167.261 0.562801 173.368 3.24798 174.459C5.93315 175.551 14.5173 174.459 14.5173 174.459L27.044 98.1081L23.4671 77.9171Z" fill="#7DA6DD"/>
<path d="M75.6788 204H6.49615C6.65119 202.665 6.82285 201.284 7.00834 199.868C7.2243 198.234 7.45964 196.547 7.71989 194.817C7.8694 193.8 8.02997 192.771 8.19886 191.722V191.72C8.94639 187.042 9.8628 182.079 10.9758 176.931V176.929C11.0478 176.596 11.1225 176.263 11.1945 175.928C11.1945 175.926 11.1945 175.924 11.1973 175.922C11.2776 175.563 11.3579 175.207 11.4382 174.845C11.4437 174.816 11.4492 174.789 11.4575 174.76C11.8092 173.193 12.1829 171.608 12.5761 170.014C12.8059 169.073 13.044 168.128 13.2904 167.182C14.2843 163.334 15.3918 159.434 16.6321 155.508C16.6321 155.508 16.6321 155.508 16.6321 155.506C16.8508 154.813 17.0751 154.116 17.3021 153.42C17.3021 153.42 17.507 153.223 18.0524 152.924C19.2678 152.258 22.1666 151.094 28.2548 150.505V150.503C28.2631 150.503 28.2742 150.501 28.2853 150.501C31.2561 150.213 34.9854 150.067 39.645 150.178C44.8113 150.302 51.1182 150.747 58.8067 151.681C58.8067 151.681 59.2303 153.155 59.9557 155.508C60.6174 157.643 61.5228 160.506 62.5831 163.644C63.5632 166.535 64.6707 169.658 65.8391 172.67C65.9692 173.005 66.0966 173.338 66.2294 173.669C67.7494 177.516 69.358 181.109 70.8918 183.697C73.1344 187.478 74.6987 195.599 75.6788 204" fill="#190444"/>
<path d="M17.3006 131.325C17.4742 129.584 18.4264 117.927 18.4264 117.927C18.4264 117.927 19.0401 101.399 18.4623 95.656C18.094 92.0506 20.615 84.9455 22.5342 80.1577C22.8665 79.3287 23.1809 78.5784 23.4683 77.9167L27.2108 76.3703L40.0373 71.0679C40.0373 71.0679 37.4834 90.3183 38.8756 100.758C38.8756 100.758 59.2889 79.4197 63.4656 69.6765C63.4656 69.6765 77.3848 72.2235 80.8639 71.7646C84.3429 71.2972 92.2352 73.3852 95.4778 97.7441C98.7293 122.103 109.169 134.86 109.634 139.274C110.095 143.679 112.418 148.549 106.852 154.117C101.283 159.686 91.9987 168.267 90.843 169.896C89.6813 171.517 78.316 174.302 78.316 174.302L66.5045 152.864C66.1213 152.167 66.4177 151.293 67.1482 150.979C69.1303 150.123 72.6872 148.576 73.6722 148.085C75.0675 147.388 83.9956 142.753 83.9956 142.753C83.9956 142.753 76.9776 133.239 76.1094 123.147C75.7201 118.638 75.5405 115.074 75.4627 112.498C75.3579 121.15 74.2531 139.23 67.1812 148.549L63.4656 155.51H16.6299C16.6299 155.51 16.3964 154.047 16.6299 152.756C17.0491 150.429 17.1269 133.063 17.3006 131.325" fill="#7DA6DD"/>
<path d="M15.936 147.761C15.8251 147.761 15.7142 147.716 15.6323 147.627C15.4973 147.482 14.3237 145.936 14.155 136.474C13.9839 127.004 15.8998 119.942 16.4107 119.218C16.5433 119.032 16.8036 118.989 16.9891 119.121C17.1723 119.251 17.2181 119.508 17.0879 119.694C16.7385 120.256 14.8129 127.028 14.9816 136.457C15.1431 145.409 16.1866 146.992 16.2517 147.083C16.3963 147.251 16.3794 147.503 16.2155 147.652C16.136 147.726 16.0348 147.761 15.936 147.761" fill="#4B75E9"/>
<path d="M38.8754 101.172C38.8296 101.172 38.7838 101.163 38.7379 101.149C38.5896 101.095 38.4817 100.961 38.4656 100.804C38.4494 100.676 37.0418 87.6827 39.5442 71.2023C39.5792 70.9769 39.7896 70.82 40.0161 70.855C40.2399 70.8904 40.3963 71.101 40.3639 71.3264C38.2444 85.266 38.9429 96.6755 39.2044 99.8383C42.6318 96.3632 59.1887 79.271 63.0799 69.5216C63.1662 69.3107 63.4061 69.2074 63.6165 69.2921C63.8295 69.377 63.932 69.6168 63.8484 69.8298C59.4611 80.8234 39.9918 100.231 39.1667 101.052C39.0885 101.13 38.9833 101.172 38.8754 101.172" fill="#4B75E9"/>
<path d="M73.5912 132.538C73.5662 132.538 73.5386 132.534 73.5136 132.53C73.2893 132.487 73.1425 132.272 73.184 132.047C73.1868 132.034 73.4277 130.759 73.9374 127.591C74.4498 124.439 75.0426 112.598 75.0509 112.478C75.0592 112.25 75.2615 112.074 75.483 112.087C75.713 112.097 75.8874 112.291 75.8764 112.519C75.8514 113.009 75.2725 124.526 74.7545 127.724C74.2421 130.905 73.9984 132.189 73.9956 132.202C73.9596 132.4 73.7851 132.538 73.5912 132.538" fill="#4B75E9"/>
<path d="M48.5859 75.7231C47.9765 75.7231 47.3911 75.6467 46.8271 75.4917C42.9674 74.4313 41.6791 69.9908 41.6684 69.9451L41.8688 69.8916C41.8795 69.9349 43.1358 74.2659 46.8833 75.2933C50.326 76.2361 54.7176 74.1934 59.9351 69.2197L60.0768 69.3707C55.6478 73.5942 51.7907 75.7231 48.5859 75.7231Z" fill="#080305"/>
</svg>
