<svg width="155" height="38" viewBox="0 0 155 38" fill="none" xmlns="http://www.w3.org/2000/svg">
<path fill-rule="evenodd" clip-rule="evenodd" d="M0.000249193 16.8631V9.39554C8.33027e-05 9.40626 0 9.41702 0 9.4278V16.8954C0 16.8846 8.33027e-05 16.8738 0.000249193 16.8631ZM8.7662 18.5799L4.21191 21.2162V21.8483C4.21191 21.1498 4.96609 20.7132 5.56943 21.0625L7.80717 22.3578L11.4739 24.4803L12.9 25.3057C13.5034 25.655 13.5034 26.5281 12.9 26.8773L5.56943 31.1206C4.96608 31.4699 4.21191 31.0333 4.21191 30.3348V28.6838L2.92798 29.427C1.62666 30.1803 0 29.2387 0 27.7322V35.1997C0 36.7063 1.62666 37.6479 2.92798 36.8946L18.7391 27.7424C20.0404 26.9891 20.0404 25.106 18.7391 24.3527L15.2167 22.3138L11.5499 20.1913L8.7662 18.5799Z" fill="white"/>
<path fill-rule="evenodd" clip-rule="evenodd" d="M0.000249193 9.39554C8.33027e-05 9.40626 0 9.41702 0 9.4278V16.8954V27.7322C0 29.2387 1.62666 30.1803 2.92798 29.427L4.21191 28.6838L11.4739 24.4803L7.80717 22.3578L5.56943 23.6531C4.96608 24.0023 4.21191 23.5658 4.21191 22.8673V21.8483V21.2162V15.9437V14.3807C4.21191 14.3734 4.21199 14.366 4.21216 14.3587C4.22775 13.6731 4.97243 13.2493 5.56943 13.5949L7.80705 14.8901L11.5498 12.7237L4.21216 8.47628L2.92799 7.73295C1.63597 6.98507 0.0232651 7.90787 0.000249193 9.39554ZM15.2166 14.8461L11.4738 17.0126L12.9 17.8382C13.5034 18.1874 13.5034 19.0605 12.9 19.4098L11.5499 20.1913L15.2167 22.3138L18.7391 20.2748C20.0404 19.5216 20.0404 17.6384 18.7391 16.8851L15.2166 14.8461Z" fill="white"/>
<path fill-rule="evenodd" clip-rule="evenodd" d="M18.7394 12.807C20.0407 12.0537 20.0407 10.1706 18.7394 9.41731L2.92824 0.265114C1.62691 -0.488153 0.000249193 0.453429 0.000249193 1.95996V9.39554C8.33027e-05 9.40626 0 9.41702 0 9.4278V16.8954C0 16.8846 8.33084e-05 16.8738 0.000249193 16.8631V9.39554C0.0232647 7.90787 1.63597 6.98507 2.92799 7.73295L4.21216 8.47628V6.91286C4.21216 6.21438 4.96633 5.77783 5.56968 6.12707L12.9003 10.3704C13.5036 10.7196 13.5036 11.5927 12.9003 11.9419L11.5498 12.7237L7.80705 14.8901L5.56968 16.1852C4.96633 16.5345 4.21216 16.0979 4.21216 15.3994V14.3587C4.21199 14.366 4.21191 14.3734 4.21191 14.3807V15.9437V21.2162L8.7662 18.5799L11.4738 17.0126L15.2166 14.8461L18.7394 12.807Z" fill="white"/>
<path d="M38.1094 14.3065C38.8217 13.0678 39.8281 12.1079 41.1287 11.4266C42.4293 10.7144 43.9621 10.3583 45.7272 10.3583C47.8019 10.3583 49.6754 10.9002 51.3476 11.984C53.0507 13.0678 54.3823 14.6162 55.3423 16.629C56.3332 18.6418 56.8287 20.9952 56.8287 23.6893C56.8287 26.3834 56.3332 28.7523 55.3423 30.7961C54.3823 32.8089 53.0507 34.3573 51.3476 35.4411C49.6754 36.5249 47.8019 37.0668 45.7272 37.0668C43.9621 37.0668 42.4293 36.7262 41.1287 36.0449C39.8281 35.3327 38.8217 34.3573 38.1094 33.1186V36.7417H29.0053V2.36893H38.1094V14.3065ZM47.5852 23.6893C47.5852 21.9862 47.1207 20.6701 46.1917 19.7411C45.2937 18.7811 44.1789 18.3012 42.8473 18.3012C41.5157 18.3012 40.3855 18.7811 39.4565 19.7411C38.5585 20.7011 38.1094 22.0171 38.1094 23.6893C38.1094 25.3925 38.5585 26.724 39.4565 27.684C40.3855 28.644 41.5157 29.1239 42.8473 29.1239C44.1789 29.1239 45.2937 28.644 46.1917 27.684C47.1207 26.6931 47.5852 25.3615 47.5852 23.6893Z" fill="white"/>
<path d="M74.9442 10.4512C77.9479 10.4512 80.3323 11.4576 82.0974 13.4704C83.8625 15.4523 84.745 18.1463 84.745 21.5526V36.7417H75.6409V22.7603C75.6409 21.2739 75.2538 20.1127 74.4797 19.2766C73.7055 18.4095 72.6681 17.976 71.3675 17.976C70.005 17.976 68.9367 18.4095 68.1625 19.2766C67.3883 20.1127 67.0013 21.2739 67.0013 22.7603V36.7417H57.8971V10.6834H67.0013V14.3994C67.8064 13.2227 68.8902 12.2782 70.2527 11.566C71.6153 10.8228 73.1791 10.4512 74.9442 10.4512Z" fill="white"/>
<path d="M102.128 18.2547H98.0405V36.7417H88.8899V18.2547H86.0565V10.6834H88.8899V10.4512C88.8899 7.1068 89.8654 4.55206 91.8163 2.78698C93.7981 0.990923 96.6315 0.0928955 100.317 0.0928955C101.06 0.0928955 101.633 0.108379 102.035 0.139345V7.89644C101.787 7.86547 101.447 7.84999 101.013 7.84999C100.022 7.84999 99.2947 8.08224 98.8302 8.54673C98.3657 8.98026 98.1024 9.69249 98.0405 10.6834H102.128V18.2547Z" fill="white"/>
<path d="M120.465 28.9846V36.7417H116.517C109.859 36.7417 106.53 33.4438 106.53 26.8479V18.2547H103.325V10.6834H106.53V4.36626H115.681V10.6834H120.418V18.2547H115.681V26.9873C115.681 27.6995 115.835 28.2104 116.145 28.5201C116.486 28.8298 117.043 28.9846 117.817 28.9846H120.465Z" fill="white"/>
<path d="M134.307 37.0668C131.953 37.0668 129.848 36.6797 127.99 35.9056C126.163 35.1005 124.707 34.0166 123.623 32.6541C122.571 31.2606 121.982 29.6968 121.858 27.9627H130.684C130.808 28.7988 131.195 29.4491 131.845 29.9136C132.495 30.3781 133.3 30.6103 134.26 30.6103C135.004 30.6103 135.592 30.4555 136.025 30.1458C136.459 29.8362 136.676 29.4336 136.676 28.9381C136.676 28.2878 136.32 27.8079 135.607 27.4982C134.895 27.1885 133.718 26.8479 132.077 26.4763C130.219 26.1047 128.671 25.6867 127.432 25.2222C126.194 24.7577 125.11 23.999 124.181 22.9461C123.283 21.8933 122.834 20.4688 122.834 18.6728C122.834 17.1244 123.252 15.7309 124.088 14.4923C124.924 13.2227 126.147 12.2163 127.757 11.4731C129.399 10.7299 131.365 10.3583 133.657 10.3583C137.063 10.3583 139.741 11.1944 141.692 12.8666C143.643 14.5387 144.773 16.7374 145.083 19.4624H136.862C136.707 18.6263 136.335 17.9915 135.747 17.558C135.189 17.0935 134.431 16.8612 133.471 16.8612C132.728 16.8612 132.155 17.0006 131.752 17.2793C131.38 17.558 131.195 17.9451 131.195 18.4405C131.195 19.0598 131.551 19.5398 132.263 19.8805C132.975 20.1901 134.121 20.5153 135.7 20.8559C137.589 21.2585 139.153 21.7075 140.392 22.2029C141.661 22.6984 142.761 23.5035 143.69 24.6183C144.65 25.7021 145.13 27.1885 145.13 29.0775C145.13 30.5948 144.681 31.9574 143.783 33.1651C142.915 34.3727 141.661 35.3327 140.02 36.0449C138.41 36.7262 136.505 37.0668 134.307 37.0668Z" fill="white"/>
<path d="M146.871 28.613H155V36.7417H146.871V28.613Z" fill="white"/>
</svg>
